<mxfile host="65bd71144e">
    <diagram id="oUwO2_aYQNwKnljaSvVU" name="Page-1">
        <mxGraphModel dx="1658" dy="471" grid="1" gridSize="13" guides="1" tooltips="1" connect="1" arrows="1" fold="1" page="0" pageScale="1" pageWidth="850" pageHeight="1100" math="0" shadow="0">
            <root>
                <mxCell id="0"/>
                <mxCell id="1" parent="0"/>
                <mxCell id="5" value="&lt;u&gt;ISBN&lt;/u&gt;" style="ellipse;whiteSpace=wrap;html=1;" vertex="1" parent="1">
                    <mxGeometry x="10" y="280" width="120" height="80" as="geometry"/>
                </mxCell>
                <mxCell id="6" value="" style="endArrow=classic;html=1;exitX=0;exitY=0;exitDx=0;exitDy=0;entryX=0.542;entryY=0.986;entryDx=0;entryDy=0;entryPerimeter=0;" edge="1" parent="1" source="4" target="5">
                    <mxGeometry width="50" height="50" relative="1" as="geometry">
                        <mxPoint x="210" y="360" as="sourcePoint"/>
                        <mxPoint x="260" y="310" as="targetPoint"/>
                    </mxGeometry>
                </mxCell>
                <mxCell id="7" value="TITTEL" style="ellipse;whiteSpace=wrap;html=1;" vertex="1" parent="1">
                    <mxGeometry x="192.5" y="290" width="120" height="80" as="geometry"/>
                </mxCell>
                <mxCell id="4" value="BOK&lt;br&gt;" style="whiteSpace=wrap;html=1;" vertex="1" parent="1">
                    <mxGeometry x="221" y="494" width="143" height="70" as="geometry"/>
                </mxCell>
                <mxCell id="8" value="" style="endArrow=classic;html=1;exitX=0.25;exitY=0;exitDx=0;exitDy=0;" edge="1" parent="1" source="4" target="7">
                    <mxGeometry width="50" height="50" relative="1" as="geometry">
                        <mxPoint x="320" y="340" as="sourcePoint"/>
                        <mxPoint x="370" y="290" as="targetPoint"/>
                    </mxGeometry>
                </mxCell>
                <mxCell id="9" value="UTGITT" style="ellipse;whiteSpace=wrap;html=1;" vertex="1" parent="1">
                    <mxGeometry x="350" y="300" width="120" height="80" as="geometry"/>
                </mxCell>
                <mxCell id="11" value="" style="endArrow=classic;html=1;" edge="1" parent="1" source="4">
                    <mxGeometry width="50" height="50" relative="1" as="geometry">
                        <mxPoint x="460" y="450" as="sourcePoint"/>
                        <mxPoint x="528.0048000073648" y="368.56884999498993" as="targetPoint"/>
                    </mxGeometry>
                </mxCell>
                <mxCell id="12" value="" style="endArrow=classic;html=1;exitX=0.598;exitY=0.005;exitDx=0;exitDy=0;exitPerimeter=0;" edge="1" parent="1" source="4">
                    <mxGeometry width="50" height="50" relative="1" as="geometry">
                        <mxPoint x="450" y="440" as="sourcePoint"/>
                        <mxPoint x="390" y="380" as="targetPoint"/>
                        <Array as="points">
                            <mxPoint x="390" y="380"/>
                        </Array>
                    </mxGeometry>
                </mxCell>
                <mxCell id="19" style="edgeStyle=none;html=1;" edge="1" parent="1" source="16">
                    <mxGeometry relative="1" as="geometry">
                        <mxPoint x="702" y="524" as="targetPoint"/>
                    </mxGeometry>
                </mxCell>
                <mxCell id="16" value="UTGITT_AV" style="rhombus;whiteSpace=wrap;html=1;" vertex="1" parent="1">
                    <mxGeometry x="481" y="484" width="158" height="80" as="geometry"/>
                </mxCell>
                <mxCell id="20" value="M" style="text;html=1;align=center;verticalAlign=middle;resizable=0;points=[];autosize=1;strokeColor=none;fillColor=none;" vertex="1" parent="1">
                    <mxGeometry x="456" y="504" width="39" height="26" as="geometry"/>
                </mxCell>
                <mxCell id="21" value="1" style="text;html=1;align=center;verticalAlign=middle;resizable=0;points=[];autosize=1;strokeColor=none;fillColor=none;" vertex="1" parent="1">
                    <mxGeometry x="625" y="504" width="39" height="26" as="geometry"/>
                </mxCell>
                <mxCell id="24" style="edgeStyle=none;html=1;entryX=0.391;entryY=0.988;entryDx=0;entryDy=0;entryPerimeter=0;" edge="1" parent="1" source="22" target="23">
                    <mxGeometry relative="1" as="geometry"/>
                </mxCell>
                <mxCell id="57" style="edgeStyle=none;html=1;" edge="1" parent="1" source="22" target="55">
                    <mxGeometry relative="1" as="geometry"/>
                </mxCell>
                <mxCell id="22" value="FORLAG" style="whiteSpace=wrap;html=1;" vertex="1" parent="1">
                    <mxGeometry x="689" y="494" width="120" height="60" as="geometry"/>
                </mxCell>
                <mxCell id="23" value="&lt;u&gt;NAVN&lt;/u&gt;" style="ellipse;whiteSpace=wrap;html=1;" vertex="1" parent="1">
                    <mxGeometry x="637" y="364" width="130" height="80" as="geometry"/>
                </mxCell>
                <mxCell id="25" value="PERSON" style="rounded=0;whiteSpace=wrap;html=1;" vertex="1" parent="1">
                    <mxGeometry x="166" y="793" width="120" height="60" as="geometry"/>
                </mxCell>
                <mxCell id="28" style="edgeStyle=none;html=1;" edge="1" parent="1" source="27" target="25">
                    <mxGeometry relative="1" as="geometry"/>
                </mxCell>
                <mxCell id="27" value="&lt;u&gt;PERSONNR&lt;/u&gt;" style="ellipse;whiteSpace=wrap;html=1;" vertex="1" parent="1">
                    <mxGeometry x="271" y="897" width="119" height="80" as="geometry"/>
                </mxCell>
                <mxCell id="31" style="edgeStyle=none;html=1;" edge="1" parent="1" source="29" target="27">
                    <mxGeometry relative="1" as="geometry"/>
                </mxCell>
                <mxCell id="29" value="FØDT" style="ellipse;whiteSpace=wrap;html=1;" vertex="1" parent="1">
                    <mxGeometry x="167" y="1014" width="130" height="80" as="geometry"/>
                </mxCell>
                <mxCell id="32" style="edgeStyle=none;html=1;" edge="1" parent="1" source="30" target="27">
                    <mxGeometry relative="1" as="geometry"/>
                </mxCell>
                <mxCell id="30" value="FØDSELSNR" style="ellipse;whiteSpace=wrap;html=1;" vertex="1" parent="1">
                    <mxGeometry x="375" y="1014" width="106" height="80" as="geometry"/>
                </mxCell>
                <mxCell id="36" value="DOBBEL STREKK betyr minst . eN BOK SVKREVES AV MINST EN PERSON" style="text;html=1;align=center;verticalAlign=middle;resizable=0;points=[];autosize=1;strokeColor=none;fillColor=none;" vertex="1" parent="1">
                    <mxGeometry x="-532" y="354" width="442" height="26" as="geometry"/>
                </mxCell>
                <mxCell id="38" value="SJANGER(kan ha flere attributer)" style="ellipse;shape=doubleEllipse;whiteSpace=wrap;html=1;aspect=fixed;" vertex="1" parent="1">
                    <mxGeometry x="494" y="250" width="130" height="130" as="geometry"/>
                </mxCell>
                <mxCell id="44" style="edgeStyle=none;html=1;entryX=0.018;entryY=0.597;entryDx=0;entryDy=0;entryPerimeter=0;" edge="1" parent="1" source="39" target="41">
                    <mxGeometry relative="1" as="geometry"/>
                </mxCell>
                <mxCell id="39" value="FORNAVN" style="ellipse;whiteSpace=wrap;html=1;" vertex="1" parent="1">
                    <mxGeometry x="-184" y="1001" width="120" height="80" as="geometry"/>
                </mxCell>
                <mxCell id="43" style="edgeStyle=none;html=1;entryX=0.426;entryY=0.981;entryDx=0;entryDy=0;entryPerimeter=0;" edge="1" parent="1" source="40" target="41">
                    <mxGeometry relative="1" as="geometry"/>
                </mxCell>
                <mxCell id="40" value="ETTERNAVN" style="ellipse;whiteSpace=wrap;html=1;" vertex="1" parent="1">
                    <mxGeometry x="8" y="1001" width="120" height="80" as="geometry"/>
                </mxCell>
                <mxCell id="42" style="edgeStyle=none;html=1;" edge="1" parent="1" source="41">
                    <mxGeometry relative="1" as="geometry">
                        <mxPoint x="167" y="858" as="targetPoint"/>
                    </mxGeometry>
                </mxCell>
                <mxCell id="41" value="NAVN" style="ellipse;whiteSpace=wrap;html=1;" vertex="1" parent="1">
                    <mxGeometry x="21" y="871" width="120" height="80" as="geometry"/>
                </mxCell>
                <mxCell id="45" value="SKREVET_AV" style="rhombus;whiteSpace=wrap;html=1;" vertex="1" parent="1">
                    <mxGeometry x="161.5" y="637" width="182" height="80" as="geometry"/>
                </mxCell>
                <mxCell id="49" value="" style="endArrow=none;html=1;" edge="1" parent="1" target="45">
                    <mxGeometry width="50" height="50" relative="1" as="geometry">
                        <mxPoint x="236" y="793" as="sourcePoint"/>
                        <mxPoint x="286" y="743" as="targetPoint"/>
                    </mxGeometry>
                </mxCell>
                <mxCell id="50" value="" style="shape=link;html=1;exitX=0.5;exitY=0;exitDx=0;exitDy=0;" edge="1" parent="1" source="45" target="4">
                    <mxGeometry width="100" relative="1" as="geometry">
                        <mxPoint x="221" y="611" as="sourcePoint"/>
                        <mxPoint x="321" y="611" as="targetPoint"/>
                    </mxGeometry>
                </mxCell>
                <mxCell id="51" value="Text" style="text;html=1;align=center;verticalAlign=middle;resizable=0;points=[];autosize=1;strokeColor=none;fillColor=none;" vertex="1" parent="1">
                    <mxGeometry x="-526" y="413" width="52" height="26" as="geometry"/>
                </mxCell>
                <mxCell id="52" value="" style="shape=link;html=1;exitX=0.993;exitY=0.438;exitDx=0;exitDy=0;exitPerimeter=0;" edge="1" parent="1" source="4" target="16">
                    <mxGeometry width="100" relative="1" as="geometry">
                        <mxPoint x="370" y="523.67" as="sourcePoint"/>
                        <mxPoint x="390" y="546" as="targetPoint"/>
                    </mxGeometry>
                </mxCell>
                <mxCell id="53" value="M" style="text;html=1;align=center;verticalAlign=middle;resizable=0;points=[];autosize=1;strokeColor=none;fillColor=none;" vertex="1" parent="1">
                    <mxGeometry x="248" y="621" width="39" height="26" as="geometry"/>
                </mxCell>
                <mxCell id="54" value="N&lt;br&gt;" style="text;html=1;align=center;verticalAlign=middle;resizable=0;points=[];autosize=1;strokeColor=none;fillColor=none;" vertex="1" parent="1">
                    <mxGeometry x="209" y="712" width="39" height="26" as="geometry"/>
                </mxCell>
                <mxCell id="55" value="&lt;u&gt;ADRESSE&lt;br&gt;&lt;/u&gt;" style="ellipse;whiteSpace=wrap;html=1;" vertex="1" parent="1">
                    <mxGeometry x="845" y="364" width="117" height="80" as="geometry"/>
                </mxCell>
                <mxCell id="59" style="edgeStyle=none;html=1;entryX=0.357;entryY=0.138;entryDx=0;entryDy=0;entryPerimeter=0;" edge="1" parent="1" source="58" target="45">
                    <mxGeometry relative="1" as="geometry"/>
                </mxCell>
                <mxCell id="58" value="ANDEL" style="ellipse;whiteSpace=wrap;html=1;" vertex="1" parent="1">
                    <mxGeometry x="-13" y="621" width="104" height="47" as="geometry"/>
                </mxCell>
            </root>
        </mxGraphModel>
    </diagram>
</mxfile>